<mxfile host="app.diagrams.net" agent="Mozilla/5.0 (Windows NT 10.0; Win64; x64) AppleWebKit/537.36 (KHTML, like Gecko) Chrome/128.0.0.0 Safari/537.36 OPR/114.0.0.0" version="24.8.3">
  <diagram name="Page-1" id="vG2iDehwh0ModBr2qLH2">
    <mxGraphModel grid="1" page="1" gridSize="10" guides="1" tooltips="1" connect="1" arrows="1" fold="1" pageScale="1" pageWidth="850" pageHeight="1100" math="0" shadow="0">
      <root>
        <mxCell id="0" />
        <mxCell id="1" parent="0" />
        <mxCell id="mB8uMbvoKgrO5J7uaGN0-5" value="Board" style="swimlane;fontStyle=1;align=center;verticalAlign=top;childLayout=stackLayout;horizontal=1;startSize=26;horizontalStack=0;resizeParent=1;resizeParentMax=0;resizeLast=0;collapsible=1;marginBottom=0;whiteSpace=wrap;html=1;" vertex="1" parent="1">
          <mxGeometry x="498" y="690" width="160" height="120" as="geometry" />
        </mxCell>
        <mxCell id="mB8uMbvoKgrO5J7uaGN0-6" value="# board: char[][]" style="text;strokeColor=none;fillColor=none;align=left;verticalAlign=top;spacingLeft=4;spacingRight=4;overflow=hidden;rotatable=0;points=[[0,0.5],[1,0.5]];portConstraint=eastwest;whiteSpace=wrap;html=1;" vertex="1" parent="mB8uMbvoKgrO5J7uaGN0-5">
          <mxGeometry y="26" width="160" height="26" as="geometry" />
        </mxCell>
        <mxCell id="mB8uMbvoKgrO5J7uaGN0-7" value="" style="line;strokeWidth=1;fillColor=none;align=left;verticalAlign=middle;spacingTop=-1;spacingLeft=3;spacingRight=3;rotatable=0;labelPosition=right;points=[];portConstraint=eastwest;strokeColor=inherit;" vertex="1" parent="mB8uMbvoKgrO5J7uaGN0-5">
          <mxGeometry y="52" width="160" height="8" as="geometry" />
        </mxCell>
        <mxCell id="mB8uMbvoKgrO5J7uaGN0-8" value="+ board(): void&lt;div&gt;+ getBoard(): char[][]&lt;/div&gt;&lt;div&gt;+ printBoard(char[][]): void&lt;/div&gt;" style="text;strokeColor=none;fillColor=none;align=left;verticalAlign=top;spacingLeft=4;spacingRight=4;overflow=hidden;rotatable=0;points=[[0,0.5],[1,0.5]];portConstraint=eastwest;whiteSpace=wrap;html=1;" vertex="1" parent="mB8uMbvoKgrO5J7uaGN0-5">
          <mxGeometry y="60" width="160" height="60" as="geometry" />
        </mxCell>
        <mxCell id="mB8uMbvoKgrO5J7uaGN0-9" value="BoardManager" style="swimlane;fontStyle=1;align=center;verticalAlign=top;childLayout=stackLayout;horizontal=1;startSize=26;horizontalStack=0;resizeParent=1;resizeParentMax=0;resizeLast=0;collapsible=1;marginBottom=0;whiteSpace=wrap;html=1;" vertex="1" parent="1">
          <mxGeometry x="483" y="500" width="190" height="110" as="geometry" />
        </mxCell>
        <mxCell id="mB8uMbvoKgrO5J7uaGN0-11" value="" style="line;strokeWidth=1;fillColor=none;align=left;verticalAlign=middle;spacingTop=-1;spacingLeft=3;spacingRight=3;rotatable=0;labelPosition=right;points=[];portConstraint=eastwest;strokeColor=inherit;" vertex="1" parent="mB8uMbvoKgrO5J7uaGN0-9">
          <mxGeometry y="26" width="190" height="8" as="geometry" />
        </mxCell>
        <mxCell id="mB8uMbvoKgrO5J7uaGN0-12" value="+ isValidMove(int, int): boolean&lt;div&gt;+ placeSymbol(char, int, int): void&lt;/div&gt;&lt;div&gt;+ isWinner(char): boolean&lt;/div&gt;&lt;div&gt;+ isTie(): boolean&lt;br&gt;&lt;div&gt;&lt;br&gt;&lt;/div&gt;&lt;/div&gt;" style="text;strokeColor=none;fillColor=none;align=left;verticalAlign=top;spacingLeft=4;spacingRight=4;overflow=hidden;rotatable=0;points=[[0,0.5],[1,0.5]];portConstraint=eastwest;whiteSpace=wrap;html=1;" vertex="1" parent="mB8uMbvoKgrO5J7uaGN0-9">
          <mxGeometry y="34" width="190" height="76" as="geometry" />
        </mxCell>
        <mxCell id="mB8uMbvoKgrO5J7uaGN0-13" value="&lt;span style=&quot;font-weight: normal;&quot;&gt;&amp;lt;&amp;lt;Abstract&amp;gt;&amp;gt;&lt;/span&gt;&lt;div&gt;&lt;span style=&quot;font-weight: normal;&quot;&gt;Game&lt;/span&gt;&lt;/div&gt;" style="swimlane;fontStyle=1;align=center;verticalAlign=top;childLayout=stackLayout;horizontal=1;startSize=40;horizontalStack=0;resizeParent=1;resizeParentMax=0;resizeLast=0;collapsible=1;marginBottom=0;whiteSpace=wrap;html=1;" vertex="1" parent="1">
          <mxGeometry x="623" y="283" width="160" height="74" as="geometry" />
        </mxCell>
        <mxCell id="mB8uMbvoKgrO5J7uaGN0-15" value="" style="line;strokeWidth=1;fillColor=none;align=left;verticalAlign=middle;spacingTop=-1;spacingLeft=3;spacingRight=3;rotatable=0;labelPosition=right;points=[];portConstraint=eastwest;strokeColor=inherit;" vertex="1" parent="mB8uMbvoKgrO5J7uaGN0-13">
          <mxGeometry y="40" width="160" height="8" as="geometry" />
        </mxCell>
        <mxCell id="mB8uMbvoKgrO5J7uaGN0-16" value="+ start(): void" style="text;strokeColor=none;fillColor=none;align=left;verticalAlign=top;spacingLeft=4;spacingRight=4;overflow=hidden;rotatable=0;points=[[0,0.5],[1,0.5]];portConstraint=eastwest;whiteSpace=wrap;html=1;" vertex="1" parent="mB8uMbvoKgrO5J7uaGN0-13">
          <mxGeometry y="48" width="160" height="26" as="geometry" />
        </mxCell>
        <mxCell id="mB8uMbvoKgrO5J7uaGN0-17" value="HumanPlayer" style="swimlane;fontStyle=1;align=center;verticalAlign=top;childLayout=stackLayout;horizontal=1;startSize=26;horizontalStack=0;resizeParent=1;resizeParentMax=0;resizeLast=0;collapsible=1;marginBottom=0;whiteSpace=wrap;html=1;" vertex="1" parent="1">
          <mxGeometry x="68" y="750" width="160" height="120" as="geometry" />
        </mxCell>
        <mxCell id="mB8uMbvoKgrO5J7uaGN0-18" value="- symbol: char" style="text;strokeColor=none;fillColor=none;align=left;verticalAlign=top;spacingLeft=4;spacingRight=4;overflow=hidden;rotatable=0;points=[[0,0.5],[1,0.5]];portConstraint=eastwest;whiteSpace=wrap;html=1;" vertex="1" parent="mB8uMbvoKgrO5J7uaGN0-17">
          <mxGeometry y="26" width="160" height="26" as="geometry" />
        </mxCell>
        <mxCell id="mB8uMbvoKgrO5J7uaGN0-19" value="" style="line;strokeWidth=1;fillColor=none;align=left;verticalAlign=middle;spacingTop=-1;spacingLeft=3;spacingRight=3;rotatable=0;labelPosition=right;points=[];portConstraint=eastwest;strokeColor=inherit;" vertex="1" parent="mB8uMbvoKgrO5J7uaGN0-17">
          <mxGeometry y="52" width="160" height="8" as="geometry" />
        </mxCell>
        <mxCell id="mB8uMbvoKgrO5J7uaGN0-20" value="+ HumanPlayer(char): void&lt;div&gt;+ getSymbol(): char&lt;/div&gt;&lt;div&gt;+getMove(Board): int[]&lt;/div&gt;" style="text;strokeColor=none;fillColor=none;align=left;verticalAlign=top;spacingLeft=4;spacingRight=4;overflow=hidden;rotatable=0;points=[[0,0.5],[1,0.5]];portConstraint=eastwest;whiteSpace=wrap;html=1;" vertex="1" parent="mB8uMbvoKgrO5J7uaGN0-17">
          <mxGeometry y="60" width="160" height="60" as="geometry" />
        </mxCell>
        <mxCell id="mB8uMbvoKgrO5J7uaGN0-21" value="&amp;lt;&amp;lt;Interface&amp;gt;&amp;gt;&lt;div&gt;IPlayer&lt;/div&gt;" style="swimlane;fontStyle=1;align=center;verticalAlign=top;childLayout=stackLayout;horizontal=1;startSize=40;horizontalStack=0;resizeParent=1;resizeParentMax=0;resizeLast=0;collapsible=1;marginBottom=0;whiteSpace=wrap;html=1;" vertex="1" parent="1">
          <mxGeometry x="303" y="750" width="160" height="90" as="geometry" />
        </mxCell>
        <mxCell id="mB8uMbvoKgrO5J7uaGN0-23" value="" style="line;strokeWidth=1;fillColor=none;align=left;verticalAlign=middle;spacingTop=-1;spacingLeft=3;spacingRight=3;rotatable=0;labelPosition=right;points=[];portConstraint=eastwest;strokeColor=inherit;" vertex="1" parent="mB8uMbvoKgrO5J7uaGN0-21">
          <mxGeometry y="40" width="160" height="8" as="geometry" />
        </mxCell>
        <mxCell id="mB8uMbvoKgrO5J7uaGN0-24" value="+ getSymbol(): void&lt;div&gt;+ getMove(Board): int[]&lt;/div&gt;" style="text;strokeColor=none;fillColor=none;align=left;verticalAlign=top;spacingLeft=4;spacingRight=4;overflow=hidden;rotatable=0;points=[[0,0.5],[1,0.5]];portConstraint=eastwest;whiteSpace=wrap;html=1;" vertex="1" parent="mB8uMbvoKgrO5J7uaGN0-21">
          <mxGeometry y="48" width="160" height="42" as="geometry" />
        </mxCell>
        <mxCell id="mB8uMbvoKgrO5J7uaGN0-25" value="PlayerManager" style="swimlane;fontStyle=1;align=center;verticalAlign=top;childLayout=stackLayout;horizontal=1;startSize=26;horizontalStack=0;resizeParent=1;resizeParentMax=0;resizeLast=0;collapsible=1;marginBottom=0;whiteSpace=wrap;html=1;" vertex="1" parent="1">
          <mxGeometry x="98" y="500" width="300" height="150" as="geometry" />
        </mxCell>
        <mxCell id="mB8uMbvoKgrO5J7uaGN0-26" value="- player1: HumanPlayer&lt;div&gt;- player2: HumanPlayer&lt;/div&gt;&lt;div&gt;- currentPlayer: HumanPlayer&lt;/div&gt;" style="text;strokeColor=none;fillColor=none;align=left;verticalAlign=top;spacingLeft=4;spacingRight=4;overflow=hidden;rotatable=0;points=[[0,0.5],[1,0.5]];portConstraint=eastwest;whiteSpace=wrap;html=1;" vertex="1" parent="mB8uMbvoKgrO5J7uaGN0-25">
          <mxGeometry y="26" width="300" height="54" as="geometry" />
        </mxCell>
        <mxCell id="mB8uMbvoKgrO5J7uaGN0-27" value="" style="line;strokeWidth=1;fillColor=none;align=left;verticalAlign=middle;spacingTop=-1;spacingLeft=3;spacingRight=3;rotatable=0;labelPosition=right;points=[];portConstraint=eastwest;strokeColor=inherit;" vertex="1" parent="mB8uMbvoKgrO5J7uaGN0-25">
          <mxGeometry y="80" width="300" height="8" as="geometry" />
        </mxCell>
        <mxCell id="mB8uMbvoKgrO5J7uaGN0-28" value="+ PlayerManager(HumanPlayer, HumanPlayer): void&lt;div&gt;+ getCurrentPlayer(): HumanPlayer&lt;/div&gt;&lt;div&gt;+ switchPlayer(): void&lt;/div&gt;" style="text;strokeColor=none;fillColor=none;align=left;verticalAlign=top;spacingLeft=4;spacingRight=4;overflow=hidden;rotatable=0;points=[[0,0.5],[1,0.5]];portConstraint=eastwest;whiteSpace=wrap;html=1;" vertex="1" parent="mB8uMbvoKgrO5J7uaGN0-25">
          <mxGeometry y="88" width="300" height="62" as="geometry" />
        </mxCell>
        <mxCell id="mB8uMbvoKgrO5J7uaGN0-29" value="TictactoeGame" style="swimlane;fontStyle=1;align=center;verticalAlign=top;childLayout=stackLayout;horizontal=1;startSize=26;horizontalStack=0;resizeParent=1;resizeParentMax=0;resizeLast=0;collapsible=1;marginBottom=0;whiteSpace=wrap;html=1;" vertex="1" parent="1">
          <mxGeometry x="308" y="260" width="190" height="120" as="geometry" />
        </mxCell>
        <mxCell id="mB8uMbvoKgrO5J7uaGN0-30" value="- boardManager: BoardManager&lt;div&gt;- playerManager: playerManager&lt;/div&gt;" style="text;strokeColor=none;fillColor=none;align=left;verticalAlign=top;spacingLeft=4;spacingRight=4;overflow=hidden;rotatable=0;points=[[0,0.5],[1,0.5]];portConstraint=eastwest;whiteSpace=wrap;html=1;" vertex="1" parent="mB8uMbvoKgrO5J7uaGN0-29">
          <mxGeometry y="26" width="190" height="44" as="geometry" />
        </mxCell>
        <mxCell id="mB8uMbvoKgrO5J7uaGN0-31" value="" style="line;strokeWidth=1;fillColor=none;align=left;verticalAlign=middle;spacingTop=-1;spacingLeft=3;spacingRight=3;rotatable=0;labelPosition=right;points=[];portConstraint=eastwest;strokeColor=inherit;" vertex="1" parent="mB8uMbvoKgrO5J7uaGN0-29">
          <mxGeometry y="70" width="190" height="8" as="geometry" />
        </mxCell>
        <mxCell id="mB8uMbvoKgrO5J7uaGN0-32" value="+ TictactoeGame(): void&lt;div&gt;+ start(): void&lt;/div&gt;" style="text;strokeColor=none;fillColor=none;align=left;verticalAlign=top;spacingLeft=4;spacingRight=4;overflow=hidden;rotatable=0;points=[[0,0.5],[1,0.5]];portConstraint=eastwest;whiteSpace=wrap;html=1;" vertex="1" parent="mB8uMbvoKgrO5J7uaGN0-29">
          <mxGeometry y="78" width="190" height="42" as="geometry" />
        </mxCell>
        <mxCell id="mB8uMbvoKgrO5J7uaGN0-33" value="Extends" style="endArrow=block;endSize=16;endFill=0;html=1;rounded=0;exitX=1;exitY=1.068;exitDx=0;exitDy=0;exitPerimeter=0;entryX=0.006;entryY=0.115;entryDx=0;entryDy=0;entryPerimeter=0;" edge="1" parent="1" source="mB8uMbvoKgrO5J7uaGN0-30" target="mB8uMbvoKgrO5J7uaGN0-16">
          <mxGeometry width="160" relative="1" as="geometry">
            <mxPoint x="568" y="470" as="sourcePoint" />
            <mxPoint x="728" y="470" as="targetPoint" />
          </mxGeometry>
        </mxCell>
        <mxCell id="mB8uMbvoKgrO5J7uaGN0-36" value="" style="endArrow=open;html=1;endSize=12;startArrow=diamondThin;startSize=14;startFill=1;edgeStyle=orthogonalEdgeStyle;align=left;verticalAlign=bottom;rounded=0;entryX=0.5;entryY=0;entryDx=0;entryDy=0;exitX=0.679;exitY=1.024;exitDx=0;exitDy=0;exitPerimeter=0;" edge="1" parent="1" source="mB8uMbvoKgrO5J7uaGN0-32" target="mB8uMbvoKgrO5J7uaGN0-9">
          <mxGeometry x="-1" y="3" relative="1" as="geometry">
            <mxPoint x="398" y="410" as="sourcePoint" />
            <mxPoint x="598" y="450" as="targetPoint" />
          </mxGeometry>
        </mxCell>
        <mxCell id="mB8uMbvoKgrO5J7uaGN0-37" value="" style="endArrow=open;html=1;endSize=12;startArrow=diamondThin;startSize=14;startFill=1;edgeStyle=orthogonalEdgeStyle;align=left;verticalAlign=bottom;rounded=0;entryX=0.5;entryY=0;entryDx=0;entryDy=0;exitX=0.368;exitY=1.024;exitDx=0;exitDy=0;exitPerimeter=0;" edge="1" parent="1" source="mB8uMbvoKgrO5J7uaGN0-32" target="mB8uMbvoKgrO5J7uaGN0-25">
          <mxGeometry x="-1" y="3" relative="1" as="geometry">
            <mxPoint x="378" y="390" as="sourcePoint" />
            <mxPoint x="278" y="450" as="targetPoint" />
          </mxGeometry>
        </mxCell>
        <mxCell id="mB8uMbvoKgrO5J7uaGN0-38" value="Extends" style="endArrow=block;endSize=16;endFill=0;html=1;rounded=0;entryX=0.5;entryY=0;entryDx=0;entryDy=0;exitX=0.5;exitY=1;exitDx=0;exitDy=0;exitPerimeter=0;" edge="1" parent="1" source="mB8uMbvoKgrO5J7uaGN0-12" target="mB8uMbvoKgrO5J7uaGN0-5">
          <mxGeometry width="160" relative="1" as="geometry">
            <mxPoint x="378" y="580" as="sourcePoint" />
            <mxPoint x="538" y="580" as="targetPoint" />
          </mxGeometry>
        </mxCell>
        <mxCell id="mB8uMbvoKgrO5J7uaGN0-39" value="Use" style="endArrow=open;endSize=12;dashed=1;html=1;rounded=0;entryX=0.5;entryY=0;entryDx=0;entryDy=0;exitX=0.163;exitY=1.016;exitDx=0;exitDy=0;exitPerimeter=0;" edge="1" parent="1" source="mB8uMbvoKgrO5J7uaGN0-28" target="mB8uMbvoKgrO5J7uaGN0-17">
          <mxGeometry width="160" relative="1" as="geometry">
            <mxPoint x="378" y="580" as="sourcePoint" />
            <mxPoint x="538" y="580" as="targetPoint" />
          </mxGeometry>
        </mxCell>
        <mxCell id="mB8uMbvoKgrO5J7uaGN0-40" value="" style="endArrow=block;dashed=1;endFill=0;endSize=12;html=1;rounded=0;exitX=1.013;exitY=-0.033;exitDx=0;exitDy=0;exitPerimeter=0;" edge="1" parent="1" source="mB8uMbvoKgrO5J7uaGN0-20">
          <mxGeometry width="160" relative="1" as="geometry">
            <mxPoint x="378" y="680" as="sourcePoint" />
            <mxPoint x="302" y="808" as="targetPoint" />
          </mxGeometry>
        </mxCell>
      </root>
    </mxGraphModel>
  </diagram>
</mxfile>
